<svg width="17" height="17" viewBox="0 0 17 17" fill="none" xmlns="http://www.w3.org/2000/svg">
<path d="M8.50184 2.00879C10.266 2.00879 10.4861 2.01528 11.1783 2.04775C11.8698 2.08021 12.3405 2.18865 12.7548 2.34967C13.1833 2.5146 13.5444 2.73796 13.9054 3.09832C14.2355 3.42291 14.491 3.81554 14.654 4.24889C14.8144 4.6625 14.9235 5.1339 14.9559 5.82541C14.9865 6.51757 14.9949 6.73768 14.9949 8.50184C14.9949 10.266 14.9884 10.4861 14.9559 11.1783C14.9235 11.8698 14.8144 12.3405 14.654 12.7548C14.4915 13.1884 14.2359 13.5811 13.9054 13.9054C13.5807 14.2354 13.1881 14.4909 12.7548 14.654C12.3412 14.8144 11.8698 14.9235 11.1783 14.9559C10.4861 14.9865 10.266 14.9949 8.50184 14.9949C6.73768 14.9949 6.51757 14.9884 5.82541 14.9559C5.1339 14.9235 4.66315 14.8144 4.24889 14.654C3.81537 14.4913 3.42267 14.2358 3.09832 13.9054C2.76809 13.5808 2.51261 13.1882 2.34967 12.7548C2.18865 12.3412 2.08021 11.8698 2.04775 11.1783C2.01723 10.4861 2.00879 10.266 2.00879 8.50184C2.00879 6.73768 2.01528 6.51757 2.04775 5.82541C2.08021 5.13325 2.18865 4.66315 2.34967 4.24889C2.51215 3.81527 2.7677 3.42254 3.09832 3.09832C3.42276 2.76798 3.81544 2.51247 4.24889 2.34967C4.66315 2.18865 5.13325 2.08021 5.82541 2.04775C6.51757 2.01723 6.73768 2.00879 8.50184 2.00879ZM8.50184 5.25532C7.64081 5.25532 6.81504 5.59736 6.2062 6.2062C5.59736 6.81504 5.25532 7.64081 5.25532 8.50184C5.25532 9.36288 5.59736 10.1886 6.2062 10.7975C6.81504 11.4063 7.64081 11.7484 8.50184 11.7484C9.36288 11.7484 10.1886 11.4063 10.7975 10.7975C11.4063 10.1886 11.7484 9.36288 11.7484 8.50184C11.7484 7.64081 11.4063 6.81504 10.7975 6.2062C10.1886 5.59736 9.36288 5.25532 8.50184 5.25532ZM12.7223 5.09299C12.7223 4.87773 12.6368 4.67129 12.4846 4.51908C12.3324 4.36687 12.126 4.28136 11.9107 4.28136C11.6954 4.28136 11.489 4.36687 11.3368 4.51908C11.1846 4.67129 11.0991 4.87773 11.0991 5.09299C11.0991 5.30825 11.1846 5.51469 11.3368 5.6669C11.489 5.81911 11.6954 5.90462 11.9107 5.90462C12.126 5.90462 12.3324 5.81911 12.4846 5.6669C12.6368 5.51469 12.7223 5.30825 12.7223 5.09299ZM8.50184 6.55393C9.01846 6.55393 9.51392 6.75915 9.87923 7.12446C10.2445 7.48976 10.4498 7.98523 10.4498 8.50184C10.4498 9.01846 10.2445 9.51392 9.87923 9.87923C9.51392 10.2445 9.01846 10.4498 8.50184 10.4498C7.98523 10.4498 7.48976 10.2445 7.12446 9.87923C6.75915 9.51392 6.55393 9.01846 6.55393 8.50184C6.55393 7.98523 6.75915 7.48976 7.12446 7.12446C7.48976 6.75915 7.98523 6.55393 8.50184 6.55393Z" fill="white"/>
</svg>
