<svg width="99" height="23" viewBox="0 0 99 23" fill="none" xmlns="http://www.w3.org/2000/svg">
<path d="M96.5059 22.1368C95.7784 22.1368 95.1756 21.9081 94.6976 21.4508C94.2195 20.9935 93.9805 20.4427 93.9805 19.7984C93.9805 19.1124 94.2195 18.5408 94.6976 18.0836C95.1756 17.6055 95.7784 17.3665 96.5059 17.3665C97.2334 17.3665 97.8258 17.6055 98.2831 18.0836C98.7612 18.5616 99.0002 19.1332 99.0002 19.7984C99.0002 20.4427 98.7612 20.9935 98.2831 21.4508C97.8258 21.9081 97.2334 22.1368 96.5059 22.1368Z" fill="white"/>
<path d="M79.6432 22.4485C77.2112 22.4485 75.1119 21.9808 73.3451 21.0455C71.5991 20.0893 70.2688 18.7694 69.3543 17.0858C68.4397 15.3814 67.9824 13.4275 67.9824 11.2242C67.9824 9.02097 68.4397 7.07751 69.3543 5.39387C70.2688 3.68945 71.5991 2.36956 73.3451 1.43421C75.1119 0.47807 77.2112 0 79.6432 0C82.0751 0 84.164 0.47807 85.91 1.43421C87.6768 2.36956 89.0175 3.68945 89.9321 5.39387C90.8466 7.07751 91.3039 9.02097 91.3039 11.2242C91.3039 13.4275 90.8466 15.3814 89.9321 17.0858C89.0175 18.7694 87.6768 20.0893 85.91 21.0455C84.164 21.9808 82.0751 22.4485 79.6432 22.4485ZM79.6432 19.1748C82.0127 19.1748 83.8523 18.468 85.1617 17.0546C86.4712 15.6204 87.126 13.6769 87.126 11.2242C87.126 8.75075 86.4401 6.8073 85.0682 5.39387C83.7172 3.98045 81.8049 3.27374 79.3314 3.27374C77.0657 3.27374 75.299 4.00124 74.031 5.45623C72.7839 6.89044 72.1603 8.81311 72.1603 11.2242C72.1603 13.6769 72.8151 15.6204 74.1246 17.0546C75.4341 18.468 77.2736 19.1748 79.6432 19.1748Z" fill="white"/>
<path d="M54.9152 22.4485C52.5664 22.4485 50.5294 22.0016 48.8042 21.1078C47.079 20.214 45.7591 18.9253 44.8445 17.2417C43.9299 15.5581 43.4727 13.5626 43.4727 11.2554C43.4727 8.94822 43.9299 6.9528 44.8445 5.26916C45.7591 3.56474 47.0686 2.26563 48.773 1.37185C50.4982 0.457284 52.5248 0 54.8528 0C56.7859 0 58.5734 0.332571 60.2155 0.997711C61.8575 1.66285 63.0735 2.54624 63.8634 3.64788C64.1128 3.98045 64.2375 4.32341 64.2375 4.67677C64.2375 5.19641 63.9569 5.66409 63.3957 6.0798C63.1463 6.26687 62.8345 6.3604 62.4603 6.3604C62.1486 6.3604 61.8368 6.29805 61.525 6.17333C61.2132 6.02783 60.9534 5.83037 60.7455 5.58094C60.0388 4.7703 59.2178 4.18831 58.2824 3.83495C57.3471 3.46081 56.2039 3.27374 54.8528 3.27374C52.5872 3.27374 50.8204 3.98045 49.5525 5.39387C48.2845 6.78651 47.6506 8.74036 47.6506 11.2554C47.6506 13.7497 48.2845 15.6932 49.5525 17.0858C50.8412 18.4784 52.6287 19.1748 54.9152 19.1748C56.8066 19.1748 58.2824 18.811 59.3425 18.0835C60.4233 17.356 60.9638 16.3479 60.9638 15.0592V14.3733C60.9638 13.9368 60.8598 13.6354 60.652 13.4691C60.4649 13.3028 60.1323 13.2197 59.6543 13.2197H55.5699C54.9879 13.2197 54.5306 13.0846 54.198 12.8143C53.8655 12.5233 53.6992 12.1284 53.6992 11.6296C53.6992 11.1099 53.8551 10.715 54.1669 10.4448C54.4994 10.1538 54.9671 10.0083 55.5699 10.0083H61.6185C62.8241 10.0083 63.7075 10.2681 64.2687 10.7877C64.8299 11.2866 65.1105 12.0868 65.1105 13.1885V14.4044C65.1105 15.9842 64.6844 17.3872 63.8322 18.6135C62.98 19.8191 61.7744 20.7649 60.2155 21.4508C58.6773 22.1159 56.9106 22.4485 54.9152 22.4485Z" fill="white"/>
<path d="M28.9479 22.4485C26.5159 22.4485 24.4166 21.9808 22.6498 21.0455C20.9038 20.0893 19.5735 18.7694 18.659 17.0858C17.7444 15.3814 17.2871 13.4275 17.2871 11.2242C17.2871 9.02097 17.7444 7.07751 18.659 5.39387C19.5735 3.68945 20.9038 2.36956 22.6498 1.43421C24.4166 0.47807 26.5159 0 28.9479 0C31.3798 0 33.4687 0.47807 35.2147 1.43421C36.9815 2.36956 38.3222 3.68945 39.2367 5.39387C40.1513 7.07751 40.6086 9.02097 40.6086 11.2242C40.6086 13.4275 40.1513 15.3814 39.2367 17.0858C38.3222 18.7694 36.9815 20.0893 35.2147 21.0455C33.4687 21.9808 31.3798 22.4485 28.9479 22.4485ZM28.9479 19.1748C31.3174 19.1748 33.1569 18.468 34.4664 17.0546C35.7759 15.6204 36.4307 13.6769 36.4307 11.2242C36.4307 8.75075 35.7448 6.8073 34.3729 5.39387C33.0218 3.98045 31.1096 3.27374 28.6361 3.27374C26.3704 3.27374 24.6037 4.00124 23.3357 5.45623C22.0886 6.89044 21.465 8.81311 21.465 11.2242C21.465 13.6769 22.1198 15.6204 23.4293 17.0546C24.7388 18.468 26.5783 19.1748 28.9479 19.1748Z" fill="white"/>
<path d="M4.98855 22.1367C3.40884 22.1367 2.18249 21.721 1.30949 20.8896C0.436498 20.0581 0 18.8941 0 17.3976V1.87071C0 1.28871 0.187071 0.831426 0.561212 0.498856C0.935354 0.166285 1.43421 0 2.05778 0C2.68135 0 3.1802 0.176678 3.55434 0.530034C3.94927 0.862603 4.14673 1.30949 4.14673 1.87071V17.3976C4.14673 17.8756 4.26106 18.2498 4.4897 18.52C4.73912 18.7902 5.0717 18.9253 5.48741 18.9253H15.4645C16.0881 18.9253 16.5662 19.0708 16.8987 19.3618C17.2313 19.632 17.3976 20.027 17.3976 20.5466C17.3976 21.0455 17.2209 21.4404 16.8675 21.7314C16.535 22.0016 16.0673 22.1367 15.4645 22.1367H4.98855Z" fill="white"/>
</svg>
