<svg width="19" height="19" viewBox="0 0 19 19" fill="none" xmlns="http://www.w3.org/2000/svg">
<path fill-rule="evenodd" clip-rule="evenodd" d="M14.9994 14.2923C16.2445 12.882 17 11.0292 17 9C17 4.58172 13.4183 1 9 1C4.58172 1 1 4.58172 1 9C1 13.4183 4.58172 17 9 17C11.0292 17 12.882 16.2445 14.2923 14.9994L16.6464 17.3536L17.3536 16.6464L14.9994 14.2923ZM9 16C5.13401 16 2 12.866 2 9C2 5.13401 5.13401 2 9 2C12.866 2 16 5.13401 16 9C16 10.9333 15.2176 12.6819 13.9497 13.9497C12.6819 15.2176 10.9333 16 9 16Z" fill="#202020"/>
</svg>
