<svg width="99" height="23" viewBox="0 0 99 23" fill="none" xmlns="http://www.w3.org/2000/svg">
<path d="M96.5059 22.4497C95.7784 22.4497 95.1756 22.2211 94.6976 21.7638C94.2195 21.3065 93.9805 20.7557 93.9805 20.1114C93.9805 19.4254 94.2195 18.8538 94.6976 18.3965C95.1756 17.9185 95.7784 17.6794 96.5059 17.6794C97.2334 17.6794 97.8258 17.9185 98.2831 18.3965C98.7612 18.8746 99.0002 19.4462 99.0002 20.1114C99.0002 20.7557 98.7612 21.3065 98.2831 21.7638C97.8258 22.2211 97.2334 22.4497 96.5059 22.4497Z" fill="#141414"/>
<path d="M79.6432 22.7615C77.2112 22.7615 75.1119 22.2938 73.3451 21.3584C71.5991 20.4023 70.2688 19.0824 69.3543 17.3988C68.4397 15.6944 67.9824 13.7405 67.9824 11.5372C67.9824 9.33395 68.4397 7.3905 69.3543 5.70686C70.2688 4.00244 71.5991 2.68255 73.3451 1.7472C75.1119 0.791058 77.2112 0.312988 79.6432 0.312988C82.0751 0.312988 84.164 0.791058 85.91 1.7472C87.6768 2.68255 89.0175 4.00244 89.9321 5.70686C90.8466 7.3905 91.3039 9.33395 91.3039 11.5372C91.3039 13.7405 90.8466 15.6944 89.9321 17.3988C89.0175 19.0824 87.6768 20.4023 85.91 21.3584C84.164 22.2938 82.0751 22.7615 79.6432 22.7615ZM79.6432 19.4877C82.0127 19.4877 83.8523 18.781 85.1617 17.3676C86.4712 15.9334 87.126 13.9899 87.126 11.5372C87.126 9.06374 86.4401 7.12029 85.0682 5.70686C83.7172 4.29344 81.8049 3.58673 79.3314 3.58673C77.0657 3.58673 75.299 4.31422 74.031 5.76922C72.7839 7.20343 72.1603 9.1261 72.1603 11.5372C72.1603 13.9899 72.8151 15.9334 74.1246 17.3676C75.4341 18.781 77.2736 19.4877 79.6432 19.4877Z" fill="#141414"/>
<path d="M54.9152 22.7615C52.5664 22.7615 50.5294 22.3146 48.8042 21.4208C47.079 20.527 45.7591 19.2383 44.8445 17.5547C43.9299 15.871 43.4727 13.8756 43.4727 11.5684C43.4727 9.2612 43.9299 7.26579 44.8445 5.58215C45.7591 3.87773 47.0686 2.57862 48.773 1.68484C50.4982 0.770273 52.5248 0.312988 54.8528 0.312988C56.7859 0.312988 58.5734 0.645559 60.2155 1.3107C61.8575 1.97584 63.0735 2.85923 63.8634 3.96087C64.1128 4.29344 64.2375 4.6364 64.2375 4.98976C64.2375 5.5094 63.9569 5.97707 63.3957 6.39279C63.1463 6.57986 62.8345 6.67339 62.4603 6.67339C62.1486 6.67339 61.8368 6.61104 61.525 6.48632C61.2132 6.34082 60.9534 6.14336 60.7455 5.89393C60.0388 5.08329 59.2178 4.50129 58.2824 4.14794C57.3471 3.7738 56.2039 3.58673 54.8528 3.58673C52.5872 3.58673 50.8204 4.29344 49.5525 5.70686C48.2845 7.0995 47.6506 9.05335 47.6506 11.5684C47.6506 14.0627 48.2845 16.0061 49.5525 17.3988C50.8412 18.7914 52.6287 19.4877 54.9152 19.4877C56.8066 19.4877 58.2824 19.124 59.3425 18.3965C60.4233 17.669 60.9638 16.6609 60.9638 15.3722V14.6863C60.9638 14.2498 60.8598 13.9484 60.652 13.7821C60.4649 13.6158 60.1323 13.5327 59.6543 13.5327H55.5699C54.9879 13.5327 54.5306 13.3975 54.198 13.1273C53.8655 12.8363 53.6992 12.4414 53.6992 11.9426C53.6992 11.4229 53.8551 11.028 54.1669 10.7578C54.4994 10.4668 54.9671 10.3213 55.5699 10.3213H61.6185C62.8241 10.3213 63.7075 10.5811 64.2687 11.1007C64.8299 11.5996 65.1105 12.3998 65.1105 13.5015V14.7174C65.1105 16.2971 64.6844 17.7002 63.8322 18.9265C62.98 20.1321 61.7744 21.0778 60.2155 21.7638C58.6773 22.4289 56.9106 22.7615 54.9152 22.7615Z" fill="#141414"/>
<path d="M28.9479 22.7615C26.5159 22.7615 24.4166 22.2938 22.6498 21.3584C20.9038 20.4023 19.5735 19.0824 18.659 17.3988C17.7444 15.6944 17.2871 13.7405 17.2871 11.5372C17.2871 9.33395 17.7444 7.3905 18.659 5.70686C19.5735 4.00244 20.9038 2.68255 22.6498 1.7472C24.4166 0.791058 26.5159 0.312988 28.9479 0.312988C31.3798 0.312988 33.4687 0.791058 35.2147 1.7472C36.9815 2.68255 38.3222 4.00244 39.2367 5.70686C40.1513 7.3905 40.6086 9.33395 40.6086 11.5372C40.6086 13.7405 40.1513 15.6944 39.2367 17.3988C38.3222 19.0824 36.9815 20.4023 35.2147 21.3584C33.4687 22.2938 31.3798 22.7615 28.9479 22.7615ZM28.9479 19.4877C31.3174 19.4877 33.1569 18.781 34.4664 17.3676C35.7759 15.9334 36.4307 13.9899 36.4307 11.5372C36.4307 9.06374 35.7448 7.12029 34.3729 5.70686C33.0218 4.29344 31.1096 3.58673 28.6361 3.58673C26.3704 3.58673 24.6037 4.31422 23.3357 5.76922C22.0886 7.20343 21.465 9.1261 21.465 11.5372C21.465 13.9899 22.1198 15.9334 23.4293 17.3676C24.7388 18.781 26.5783 19.4877 28.9479 19.4877Z" fill="#141414"/>
<path d="M4.98855 22.4497C3.40884 22.4497 2.18249 22.034 1.30949 21.2026C0.436498 20.3711 0 19.2071 0 17.7106V2.1837C0 1.6017 0.187071 1.14441 0.561212 0.811844C0.935354 0.479274 1.43421 0.312988 2.05778 0.312988C2.68135 0.312988 3.1802 0.489666 3.55434 0.843022C3.94927 1.17559 4.14673 1.62248 4.14673 2.1837V17.7106C4.14673 18.1886 4.26106 18.5628 4.4897 18.833C4.73912 19.1032 5.0717 19.2383 5.48741 19.2383H15.4645C16.0881 19.2383 16.5662 19.3838 16.8987 19.6748C17.2313 19.945 17.3976 20.3399 17.3976 20.8596C17.3976 21.3584 17.2209 21.7534 16.8675 22.0444C16.535 22.3146 16.0673 22.4497 15.4645 22.4497H4.98855Z" fill="#141414"/>
</svg>
